<svg id="cogwheels" xmlns="http://www.w3.org/2000/svg" width="78.588" height="78.588" viewBox="0 0 78.588 78.588">
  <path id="Path_39" data-name="Path 39" d="M46.307,134.307v-2.6A11.719,11.719,0,0,1,34.6,120H32A14.324,14.324,0,0,0,46.307,134.307Zm0,0" transform="translate(-26.797 -101.094)" fill="#fff"/>
  <path id="Path_40" data-name="Path 40" d="M73.1,82.209A9.1,9.1,0,1,0,64,73.1,9.117,9.117,0,0,0,73.1,82.209Zm0-15.608a6.5,6.5,0,1,1-6.5,6.5A6.511,6.511,0,0,1,73.1,66.6Zm0,0" transform="translate(-53.595 -53.595)" fill="#fff"/>
  <path id="Path_41" data-name="Path 41" d="M99.9,103.8A3.9,3.9,0,1,0,96,99.9,3.907,3.907,0,0,0,99.9,103.8Zm0-5.2a1.3,1.3,0,1,1-1.3,1.3A1.3,1.3,0,0,1,99.9,98.6Zm0,0" transform="translate(-80.832 -80.832)" fill="#fff"/>
  <path id="Path_42" data-name="Path 42" d="M78.588,60.475V51.07l-3.43-1.2a20.249,20.249,0,0,0-1.506-3.641l1.579-3.268-1.224-1.224a29.03,29.03,0,0,0-2.2-2.438c-.876-.886-1.886-1.847-2.572-2.447L60.8,29.481l.724-2.171,2.934,1.468L69.338,23.9l-1.468-2.934,3.113-1.038v-6.9l-3.113-1.037,1.468-2.934L64.46,4.182,61.526,5.65,60.489,2.535h-6.9L52.555,5.648,49.621,4.18,44.743,9.058l1.468,2.934L43.1,13.029V14L32.663,4.873A19.686,19.686,0,0,0,19.7,0V.034C19.467.027,19.244,0,19.013,0A19.035,19.035,0,0,0,0,19.013c0,.231.027.454.034.682H0A19.683,19.683,0,0,0,4.873,32.662L14,43.1h-.974L11.992,46.21,9.058,44.742,4.18,49.62l1.468,2.934L2.535,53.591v6.9l3.113,1.037L4.18,64.459l4.878,4.878,2.934-1.468,1.037,3.114h6.9l1.037-3.113L23.9,69.338l4.878-4.878-1.468-2.934,2.185-.728,7.358,8.409c.577.658,1.441,1.574,2.255,2.394A30.016,30.016,0,0,0,41.732,74l1.229,1.229,3.268-1.579a20.333,20.333,0,0,0,3.64,1.506l1.2,3.429h9.405l1.2-3.43a20.25,20.25,0,0,0,3.64-1.506l3.268,1.579,6.652-6.652-1.579-3.268a20.34,20.34,0,0,0,1.506-3.64Zm-40.7-14.242a20.34,20.34,0,0,0-1.506,3.64l-3.43,1.2v9.405l3.43,1.2a20.25,20.25,0,0,0,1.506,3.641l-.384.795L11.628,36.533a19.013,19.013,0,0,0,24.9-24.91L66.123,37.5l-.81.392a20.321,20.321,0,0,0-3.64-1.506l-1.2-3.43H51.069l-1.2,3.43a20.248,20.248,0,0,0-3.64,1.506l-3.268-1.579-6.652,6.652Zm7.74-31.376,2.91-.97.213-.561c.063-.164.127-.322.2-.48L49.2,12.3l-1.37-2.741,2.293-2.293,2.741,1.37.548-.246c.157-.07.316-.133.48-.2l.561-.213.97-2.91h3.243l.97,2.91.561.213c.164.063.322.127.48.2l.548.246,2.741-1.37,2.293,2.293L64.884,12.3l.246.548c.07.157.133.316.2.48l.213.561,2.909.97V18.1l-2.91.97-.213.561c-.063.164-.127.322-.2.48l-.246.548,1.37,2.741L63.96,25.694l-2.741-1.37-.548.246c-.157.07-.316.133-.48.2l-.561.213-.9,2.695-13.1-11.459ZM19.013,2.535A16.478,16.478,0,1,1,2.535,19.014,16.5,16.5,0,0,1,19.013,2.535Zm5.963,57.1-.213.561c-.063.164-.127.322-.2.48l-.246.548,1.37,2.741L23.4,66.254l-2.741-1.37-.548.246c-.157.07-.316.133-.48.2l-.561.213-.97,2.91H14.856l-.97-2.91-.561-.213c-.164-.063-.322-.127-.48-.2l-.548-.246-2.739,1.37L7.264,63.961l1.37-2.741-.246-.548c-.07-.157-.133-.316-.2-.48l-.213-.561-2.91-.97V55.418l2.91-.97.213-.561c.063-.164.127-.322.2-.48l.246-.548-1.37-2.739,2.293-2.293L12.3,49.2l.548-.246c.157-.07.316-.133.48-.2l.561-.213.97-2.91h1.365l11.461,13.1Zm48.093.085-.174.648a17.64,17.64,0,0,1-1.766,4.273l-.337.582,1.373,2.841-4.1,4.1-2.841-1.373-.582.337A17.759,17.759,0,0,1,60.363,72.9l-.648.174-1.04,2.984H52.869l-1.04-2.984-.648-.174a17.64,17.64,0,0,1-4.273-1.766l-.582-.337-2.841,1.373-4.1-4.1,1.373-2.841-.337-.582a17.758,17.758,0,0,1-1.766-4.273l-.174-.648-2.984-1.04V52.87l2.984-1.04.174-.648a17.639,17.639,0,0,1,1.766-4.273l.337-.582L39.38,43.485l4.1-4.1,2.841,1.373.582-.337a17.758,17.758,0,0,1,4.273-1.766l.648-.174,1.04-2.984h5.805l1.04,2.984.648.174a17.639,17.639,0,0,1,4.273,1.766l.582.337,2.841-1.373,4.1,4.1-1.373,2.841.337.582a17.758,17.758,0,0,1,1.766,4.273l.174.648,2.984,1.04v5.805Zm0,0" transform="translate(0 0)" fill="#fff"/>
  <path id="Path_43" data-name="Path 43" d="M285.007,272a13.007,13.007,0,1,0,13.007,13.007A13.021,13.021,0,0,0,285.007,272Zm0,23.412a10.405,10.405,0,1,1,10.405-10.405A10.417,10.417,0,0,1,285.007,295.412Zm0,0" transform="translate(-229.831 -229.831)" fill="#fff"/>
  <path id="Path_44" data-name="Path 44" d="M311.8,304a7.8,7.8,0,1,0,7.8,7.8A7.812,7.812,0,0,0,311.8,304Zm0,13.007a5.2,5.2,0,1,1,5.2-5.2A5.208,5.208,0,0,1,311.8,317.007Zm0,0" transform="translate(-256.135 -256.135)" fill="#fff"/>
  <path id="Path_45" data-name="Path 45" d="M333.007,70.5a6.5,6.5,0,1,0-6.5,6.5A6.511,6.511,0,0,0,333.007,70.5Zm-10.405,0a3.9,3.9,0,1,1,3.9,3.9A3.907,3.907,0,0,1,322.6,70.5Zm0,0" transform="translate(-269.553 -53.595)" fill="#fff"/>
  <path id="Path_46" data-name="Path 46" d="M64,326.5a6.5,6.5,0,1,0,6.5-6.5A6.511,6.511,0,0,0,64,326.5Zm10.405,0a3.9,3.9,0,1,1-3.9-3.9A3.907,3.907,0,0,1,74.405,326.5Zm0,0" transform="translate(-53.595 -269.553)" fill="#fff"/>
</svg>
