<svg id="consultation" xmlns="http://www.w3.org/2000/svg" width="78.588" height="78.588" viewBox="0 0 78.588 78.588">
  <path id="Path_51" data-name="Path 51" d="M200.971,20.679l9.435-7.863h12.353V0H192V12.816h8.971Zm-6.408-10.426V2.563H220.2v7.69H209.479l-5.944,4.954V10.253Zm0,0" transform="translate(-161.792 0)" fill="#fff"/>
  <path id="Path_52" data-name="Path 52" d="M224,32h2.563v2.563H224Zm0,0" transform="translate(-188.522 -26.873)" fill="#fff"/>
  <path id="Path_53" data-name="Path 53" d="M256,32h10.253v2.563H256Zm0,0" transform="translate(-215.505 -26.873)" fill="#fff"/>
  <path id="Path_54" data-name="Path 54" d="M336,32h2.563v2.563H336Zm0,0" transform="translate(-282.783 -26.873)" fill="#fff"/>
  <path id="Path_55" data-name="Path 55" d="M64.524,176.837,63.5,166.613a8.857,8.857,0,0,0,7.483-8.721v-16.42h-5.07v-1.745a4.542,4.542,0,0,0-2.469-4.049,7.537,7.537,0,0,0,2.469-5.573v-2.526a7.605,7.605,0,0,0-15.211,0V130.1a7.586,7.586,0,0,0,5.011,7.115L48.909,144H41.8a5.069,5.069,0,0,0-3.649-4.527l-5.2-1.478v-2.256a7.541,7.541,0,0,0,2.535-5.633v-2.526a7.605,7.605,0,0,0-15.211,0V130.1a7.545,7.545,0,0,0,2.535,5.633v2.257l-5.2,1.478a5.074,5.074,0,0,0-3.677,4.858v4.72H8.873v7.578h2.535v20.209H0v2.526H78.588v-2.526ZM53.237,156.629v-5.792l8.982-8.95a3.951,3.951,0,0,0,1.122-2.423,2.047,2.047,0,0,1,.037.263v15.639a3.8,3.8,0,0,1-3.8,3.789H49.434v-2.526Zm-3.8,10.1h6.458l1.014,10.1H49.434Zm9.006,0h2.523l1.014,10.1H59.454Zm7.472-11.367V144h2.535v13.894a6.334,6.334,0,0,1-6.338,6.315H49.434v-2.526h10.14A6.334,6.334,0,0,0,65.912,155.365ZM53.237,130.1v-2.526a5.07,5.07,0,0,1,10.14,0V130.1a5.07,5.07,0,0,1-10.14,0Zm-3.278,16.42,8.457-8.427a1.419,1.419,0,1,1,2.01,2l-8.982,8.95H38.026a1.263,1.263,0,1,1,0-2.526ZM22.815,127.578a5.07,5.07,0,0,1,10.14,0V130.1a5.07,5.07,0,0,1-10.14,0Zm5.07,10.1a7.593,7.593,0,0,0,2.535-.442V138.6a3.242,3.242,0,0,1-2.535,1.612,3.242,3.242,0,0,1-2.535-1.612v-1.357A7.593,7.593,0,0,0,27.886,137.683ZM16.478,144.33a2.539,2.539,0,0,1,1.838-2.429l5.222-1.486a5.525,5.525,0,0,0,4.348,2.32,5.522,5.522,0,0,0,4.348-2.321l5.222,1.486a2.52,2.52,0,0,1,1.784,2.1H38.026a3.8,3.8,0,0,0-3.8,3.789,3.725,3.725,0,0,0,.233,1.263H16.478Zm-5.07,7.246H50.7V154.1H11.408Zm2.535,10.1h3.8v-2.526h-3.8v-2.526H46.9v2.526H20.28v2.526H46.9v15.157H43.88l-2.535-5.052H19.5l-2.535,5.052H13.943Zm27.1,15.157H19.8l1.268-2.526H39.778Zm0,0" transform="translate(0 -100.775)" fill="#fff"/>
</svg>
