<?xml version="1.0" encoding="UTF-8" standalone="no"?>
<!DOCTYPE svg PUBLIC "-//W3C//DTD SVG 1.1//EN" "http://www.w3.org/Graphics/SVG/1.1/DTD/svg11.dtd">
<svg width="100%" height="100%" viewBox="0 0 35 35" version="1.1" xmlns="http://www.w3.org/2000/svg" xmlns:xlink="http://www.w3.org/1999/xlink" xml:space="preserve" xmlns:serif="http://www.serif.com/" style="fill-rule:evenodd;clip-rule:evenodd;stroke-linejoin:round;stroke-miterlimit:2;">
    <path id="iconmonstr-instagram-11" d="M17.146,3.09C21.724,3.09 22.267,3.107 24.076,3.19C28.722,3.401 30.893,5.606 31.104,10.218C31.187,12.025 31.204,12.568 31.204,17.146C31.204,21.724 31.187,22.267 31.104,24.074C30.891,28.682 28.726,30.891 24.076,31.102C22.267,31.185 21.727,31.202 17.146,31.202C12.565,31.202 12.025,31.185 10.218,31.102C5.56,30.889 3.401,28.674 3.19,24.072C3.107,22.265 3.09,21.723 3.09,17.144C3.09,12.565 3.109,12.025 3.19,10.216C3.4,5.607 5.567,3.4 10.217,3.189C12.026,3.108 12.567,3.089 17.145,3.089L17.146,3.09ZM17.146,0C12.49,0 11.907,0.02 10.078,0.1C3.851,0.389 0.39,3.843 0.1,10.076C0.016,11.906 0,12.489 0,17.146C0,21.803 0.02,22.387 0.1,24.216C0.386,30.443 3.841,33.903 10.073,34.189C11.903,34.272 12.486,34.289 17.143,34.289C21.8,34.289 22.384,34.269 24.213,34.189C30.434,33.903 33.903,30.448 34.185,24.216C34.269,22.387 34.285,21.803 34.285,17.146C34.285,12.489 34.265,11.907 34.185,10.078C33.908,3.856 30.449,0.39 24.217,0.1C22.386,0.02 21.8,0 17.146,0ZM17.146,8.341C12.318,8.341 8.346,12.313 8.346,17.141C8.346,21.969 12.318,25.941 17.146,25.941C21.974,25.941 25.946,21.969 25.946,17.141C25.946,12.313 21.974,8.341 17.146,8.341ZM17.146,22.86C14.011,22.86 11.431,20.28 11.431,17.145C11.431,14.01 14.011,11.43 17.146,11.43C20.281,11.43 22.861,14.01 22.861,17.145C22.861,17.145 22.861,17.146 22.861,17.146C22.861,20.281 20.281,22.861 17.146,22.861C17.146,22.861 17.146,22.86 17.146,22.86ZM26.3,5.937C26.3,5.937 26.299,5.937 26.299,5.937C25.171,5.937 24.242,6.866 24.242,7.994C24.242,9.122 25.171,10.051 26.299,10.051C27.427,10.051 28.356,9.122 28.356,7.994C28.355,6.866 27.428,5.938 26.3,5.937Z" style="fill:rgb(142,67,166);fill-rule:nonzero;"/>
</svg>
