<svg xmlns="http://www.w3.org/2000/svg" width="41.482" height="62.223" viewBox="0 0 41.482 62.223">
  <path id="iconmonstr-location-2" d="M24.741,5.185c8.286,0,15.556,6.787,15.556,14.524,0,8.019-6.463,18.49-15.556,32.825C15.649,38.2,9.185,27.728,9.185,19.709c0-7.736,7.27-14.524,15.556-14.524m0-5.185C13.857,0,4,8.823,4,19.709s8.994,23.878,20.741,42.514c11.747-18.636,20.741-31.63,20.741-42.514S35.627,0,24.741,0Zm0,28.519a7.778,7.778,0,1,1,7.778-7.778A7.777,7.777,0,0,1,24.741,28.519Z" transform="translate(-4)" fill="#fff" opacity="0.57"/>
</svg>
