<svg id="model" xmlns="http://www.w3.org/2000/svg" width="78.588" height="78.588" viewBox="0 0 78.588 78.588">
  <path id="Path_47" data-name="Path 47" d="M339.908,87.817A3.908,3.908,0,1,0,336,83.908,3.913,3.913,0,0,0,339.908,87.817Zm0-5.211a1.3,1.3,0,1,1-1.3,1.3A1.305,1.305,0,0,1,339.908,82.606Zm0,0" transform="translate(-282.921 -67.362)" fill="#fff"/>
  <path id="Path_48" data-name="Path 48" d="M68.289,27.886l-3.222-7.652a8.83,8.83,0,0,0-4.225-11.76V2.535A2.538,2.538,0,0,0,58.307,0H55.772a2.538,2.538,0,0,0-2.535,2.535V8.474a8.83,8.83,0,0,0-4.225,11.76L45.79,27.886h-6.5V0H24.083V27.886H21.548V11.024L15.211,1.517,8.873,11.024V27.886H0V67.705L10.883,78.588H78.588v-50.7Zm2.554,12.6a1.758,1.758,0,0,1,.139.688v.14a1.78,1.78,0,0,1-3.42.693L60.287,24.727A8.906,8.906,0,0,0,63.355,22.7Zm.139,12.749V65.913H55.772V53.237ZM57.04,25.351c.251,0,.5-.017.744-.038l2.882,6.846a8.977,8.977,0,0,1-7.253,0L56.3,25.313C56.542,25.334,56.788,25.351,57.04,25.351ZM55.772,2.535h2.535V7.707a7.965,7.965,0,0,0-2.535,0ZM57.04,10.14A6.338,6.338,0,1,1,50.7,16.478,6.345,6.345,0,0,1,57.04,10.14ZM53.792,24.727,46.515,42.009a1.779,1.779,0,0,1-3.418-.692v-.14a1.771,1.771,0,0,1,.139-.689L50.725,22.7a8.909,8.909,0,0,0,3.067,2.024ZM7.605,50.7H19.013v7.605h6.338v2.535H7.605Zm13.943,5.07V48.167H7.605V45.632h7.605V44.364a3.808,3.808,0,0,1,3.8-3.8h1.268v-5.07h2.535V46.9H38.027V35.491h4.562L40.9,39.5a4.28,4.28,0,0,0-.339,1.674v.14a4.316,4.316,0,0,0,2.535,3.92v3.636a5.015,5.015,0,0,0-2.535-.7,5.07,5.07,0,1,0,5.07,5.07V45.558a4.29,4.29,0,0,0,2.535-1.453V60.842H27.886v-5.07ZM7.605,43.1V35.491h10.14v2.663A6.353,6.353,0,0,0,12.8,43.1Zm17.746-7.605h10.14v8.873H25.351ZM43.1,53.237A2.535,2.535,0,1,1,40.562,50.7,2.538,2.538,0,0,1,43.1,53.237ZM26.619,2.535h10.14V5.07h-5.07V7.605h5.07V10.14H34.224v2.535h2.535v2.535h-5.07v2.535h5.07v2.535H34.224v2.535h2.535v5.07H26.619ZM16.478,27.886V12.676h2.535V27.886ZM17.913,10.14h-5.4l2.7-4.052Zm-6.5,2.535h2.535V27.886H11.408ZM10.14,74.261,4.328,68.448H10.14Zm65.913,1.792H12.676V65.913H2.535V30.421H44.723l-1.068,2.535H5.07V63.378H50.7V38.6l1.725-4.1a11.245,11.245,0,0,0,9.226,0l3.574,8.49a4.3,4.3,0,0,0,3.221,2.567V50.7H53.237V68.448H73.518V50.7H70.983V45.236a4.316,4.316,0,0,0,2.535-3.92v-.14a4.28,4.28,0,0,0-.339-1.674l-3.823-9.081h6.7Zm0,0" transform="translate(0 0)" fill="#fff"/>
  <path id="Path_49" data-name="Path 49" d="M96,423.817h28.661V416H96Zm15.633-2.606h-2.606v-2.605h2.606Zm2.606-2.605h2.606v2.605h-2.606Zm-7.817,2.605h-2.606v-2.605h2.606Zm15.633,0H119.45v-2.605h2.606Zm-23.45-2.605h2.606v2.605H98.606Zm0,0" transform="translate(-81.022 -350.44)" fill="#fff"/>
  <path id="Path_50" data-name="Path 50" d="M288,448h28.661v2.605H288Zm0,0" transform="translate(-243.284 -377.229)" fill="#fff"/>
</svg>
