<svg id="Group_19" data-name="Group 19" xmlns="http://www.w3.org/2000/svg" width="82.028" height="34.291" viewBox="0 0 82.028 34.291">
  <path id="iconmonstr-facebook-1" d="M10.165,11.105H6v5.553h4.165V33.316h6.941V16.658h5.056l.5-5.553H17.105V8.791c0-1.326.267-1.85,1.548-1.85h4V0H17.372c-4.992,0-7.207,2.2-7.207,6.406Z" transform="translate(-6 0.308)" fill="#fff"/>
  <path id="iconmonstr-instagram-11" d="M17.146,3.09c4.578,0,5.121.017,6.93.1,4.646.211,6.817,2.416,7.028,7.028.083,1.807.1,2.35.1,6.928s-.017,5.121-.1,6.928c-.213,4.608-2.378,6.817-7.028,7.028-1.809.083-2.349.1-6.93.1s-5.121-.017-6.928-.1c-4.658-.213-6.817-2.428-7.028-7.03-.083-1.807-.1-2.349-.1-6.928s.019-5.119.1-6.928C3.4,5.607,5.567,3.4,10.217,3.189c1.809-.081,2.35-.1,6.928-.1Zm0-3.09c-4.656,0-5.239.02-7.068.1C3.851.389.39,3.843.1,10.076c-.084,1.83-.1,2.413-.1,7.07s.02,5.241.1,7.07c.286,6.227,3.741,9.687,9.973,9.973,1.83.083,2.413.1,7.07.1s5.241-.02,7.07-.1c6.221-.286,9.69-3.741,9.972-9.973.084-1.829.1-2.413.1-7.07s-.02-5.239-.1-7.068C33.908,3.856,30.449.39,24.217.1,22.386.02,21.8,0,17.146,0Zm0,8.341a8.8,8.8,0,1,0,8.8,8.8A8.8,8.8,0,0,0,17.146,8.341Zm0,14.519a5.715,5.715,0,1,1,5.715-5.715A5.715,5.715,0,0,1,17.146,22.861ZM26.3,5.937a2.057,2.057,0,1,0,2.056,2.057A2.058,2.058,0,0,0,26.3,5.937Z" transform="translate(47.736)" fill="#fff"/>
</svg>
