<svg id="Outline" xmlns="http://www.w3.org/2000/svg" width="78.588" height="71.603" viewBox="0 0 78.588 71.603">
  <g id="Group_4" data-name="Group 4" transform="translate(0 0)">
    <path id="Path_30" data-name="Path 30" d="M29.126,39.307a10.884,10.884,0,0,0,3.334-7.842V30.271a1.172,1.172,0,1,0-2.343,0v1.194a8.436,8.436,0,0,1-2.6,6.106,8.108,8.108,0,0,1-6.15,2.235,8.49,8.49,0,0,1-7.653-8.668V26.688H33.632A3.526,3.526,0,0,0,37.1,23.7,3.58,3.58,0,0,0,34.76,19.73a13.249,13.249,0,0,0-4.643-9.124V8.777a1.172,1.172,0,1,0-2.343,0v.246a12.6,12.6,0,0,0-2.343-.937v-1.7A2.366,2.366,0,0,0,23.088,4H20.745A2.366,2.366,0,0,0,18.4,6.388V8.1a12.627,12.627,0,0,0-2.343.936V8.777a1.172,1.172,0,1,0-2.343,0V10.6a13.17,13.17,0,0,0-3.6,4.864,1.213,1.213,0,0,0,.109,1.21,1.162,1.162,0,0,0,1.093.486,1.175,1.175,0,0,0,.945-.741,10.8,10.8,0,0,1,1.457-2.426v.755a1.172,1.172,0,1,0,2.343,0V11.8A10.381,10.381,0,0,1,18.4,10.594v2.959a2.366,2.366,0,0,0,2.343,2.388h2.343a2.366,2.366,0,0,0,2.343-2.388V10.594a10.335,10.335,0,0,1,2.343,1.2v2.952a1.172,1.172,0,1,0,2.343,0v-.768a10.849,10.849,0,0,1,2.269,5.544H10.2a3.583,3.583,0,0,0,0,7.165h1.172v4.449a11.288,11.288,0,0,0,4.014,8.686H11.372A9.475,9.475,0,0,0,2,49.377V72.065a1.172,1.172,0,1,0,2.343,0V49.377a7.105,7.105,0,0,1,7.029-7.165h4.507l-.981,7a1.205,1.205,0,0,0,.435,1.109,1.154,1.154,0,0,0,1.16.17l.82-.336a3.589,3.589,0,0,0,.958,1.771L17.23,63.6a1.211,1.211,0,0,0,.234.824L20.979,69.2a1.158,1.158,0,0,0,1.874,0l3.515-4.777A1.211,1.211,0,0,0,26.6,63.6L25.561,51.922a3.589,3.589,0,0,0,.958-1.771l.82.336a1.154,1.154,0,0,0,1.16-.17,1.205,1.205,0,0,0,.435-1.109l-1.161-8.273v-.541A10.652,10.652,0,0,0,29.126,39.307ZM20.745,13.553V6.388h2.343v7.165ZM9.029,23.106A1.183,1.183,0,0,1,10.2,21.912H33.632a1.194,1.194,0,0,1,0,2.388H10.2A1.183,1.183,0,0,1,9.029,23.106ZM23.818,46.478l2.008-2.558.5,3.582ZM17.5,47.5l.5-3.582,2.008,2.558Zm4.42-5.289a10.425,10.425,0,0,0,2.484-.309l-2.492,3.175L19.42,41.9a9.93,9.93,0,0,0,1.8.294C21.454,42.2,21.69,42.212,21.924,42.212Zm2.3,21.146-2.307,3.135-2.307-3.135.929-10.42c.069,0,.136.021.206.021h2.343c.07,0,.137-.017.206-.021Zm.036-13.981a1.183,1.183,0,0,1-1.172,1.194H20.745a1.183,1.183,0,0,1-1.172-1.194V49.23l2.343-.955,2.343.955Z" transform="translate(-2 -1.657)" fill="#262d44"/>
    <circle id="Ellipse_5" data-name="Ellipse 5" cx="1.172" cy="1.172" r="1.172" transform="translate(17.089 26.271)" fill="#262d44"/>
    <circle id="Ellipse_6" data-name="Ellipse 6" cx="1.172" cy="1.172" r="1.172" transform="translate(24.977 26.271)" fill="#262d44"/>
    <path id="Path_31" data-name="Path 31" d="M19.686,32.412a7.5,7.5,0,0,0,4.165-1.265,1.172,1.172,0,1,0-1.3-1.949,5.155,5.155,0,0,1-5.729,0,1.172,1.172,0,0,0-1.3,1.949,7.5,7.5,0,0,0,4.165,1.265Z" transform="translate(2.304 3.251)" fill="#262d44"/>
    <path id="Path_32" data-name="Path 32" d="M9.172,44A1.172,1.172,0,0,0,8,45.172V63.916a1.172,1.172,0,1,0,2.343,0V45.172A1.172,1.172,0,0,0,9.172,44Z" transform="translate(-0.971 6.515)" fill="#262d44"/>
    <path id="Path_33" data-name="Path 33" d="M28.343,34H27.172a1.172,1.172,0,1,0,0,2.343h1.172a7.036,7.036,0,0,1,7.029,7.029V65.632a1.172,1.172,0,1,0,2.343,0V43.372A9.383,9.383,0,0,0,28.343,34Z" transform="translate(6.099 4.799)" fill="#262d44"/>
    <path id="Path_34" data-name="Path 34" d="M29.172,44A1.172,1.172,0,0,0,28,45.172V63.916a1.172,1.172,0,1,0,2.343,0V45.172A1.172,1.172,0,0,0,29.172,44Z" transform="translate(6.179 6.515)" fill="#262d44"/>
    <path id="Path_35" data-name="Path 35" d="M3.172,39.46a1.172,1.172,0,0,0,1.172-1.172V11.343h4.7A1.172,1.172,0,1,0,9.039,9H3.172A1.172,1.172,0,0,0,2,10.172V38.289A1.172,1.172,0,0,0,3.172,39.46Z" transform="translate(-2 -0.799)" fill="#262d44"/>
    <path id="Path_36" data-name="Path 36" d="M61.8,2H59.462A1.184,1.184,0,0,0,58.29,3.2v7.172H30.164a1.2,1.2,0,0,0,0,2.391H44.231v3.586H43.06a1.184,1.184,0,0,0-1.172,1.2v3.586H40.717a1.184,1.184,0,0,0-1.172,1.2V51.01a1.172,1.172,0,1,0,2.343,0V47.424h2.343V51.01a1.172,1.172,0,1,0,2.343,0V47.424h2.343V51.01a1.172,1.172,0,1,0,2.343,0V47.424H53.6V51.01a1.172,1.172,0,1,0,2.343,0V22.321a1.184,1.184,0,0,0-1.172-1.2H48.918V17.54a1.184,1.184,0,0,0-1.172-1.2H46.575V12.758H58.29V59.377a1.184,1.184,0,0,0,1.172,1.2h3.515a2.391,2.391,0,0,1,0,4.781H40.717a1.2,1.2,0,0,0,0,2.391H62.976a4.735,4.735,0,0,0,4.686-4.781V7.977A5.925,5.925,0,0,0,61.8,2ZM48.918,23.516v2.391H46.575V23.516ZM41.888,40.252V37.861h7.029v2.391ZM53.6,33.079V35.47H51.261V33.079ZM48.918,35.47H46.575V33.079h2.343Zm-7.029,0V33.079h2.343V35.47Zm2.343-4.781H41.888V28.3h2.343Zm7.029,7.172H53.6v2.391H51.261ZM53.6,30.689H46.575V28.3H53.6ZM41.888,23.516h2.343v2.391H41.888Zm0,21.516V42.642h2.343v2.391Zm4.686,0V42.642h2.343v2.391Zm4.686,0V42.642H53.6v2.391ZM53.6,25.907H51.261V23.516H53.6Zm-9.372-4.781V18.735h2.343v2.391ZM62.976,58.182H60.633V4.391H61.8a3.551,3.551,0,0,1,3.515,3.586V58.824a4.58,4.58,0,0,0-2.343-.642Z" transform="translate(10.926 -2)" fill="#262d44"/>
    <path id="Path_37" data-name="Path 37" d="M53.23,46H39.172a1.172,1.172,0,0,0,0,2.343H53.23a1.172,1.172,0,1,0,0-2.343Z" transform="translate(10.668 6.542)" fill="#262d44"/>
    <path id="Path_38" data-name="Path 38" d="M52.2,50H45.172a1.172,1.172,0,0,0,0,2.343H52.2A1.172,1.172,0,1,0,52.2,50Z" transform="translate(11.905 7.318)" fill="#262d44"/>
  </g>
</svg>
