<svg id="worker" xmlns="http://www.w3.org/2000/svg" width="78.588" height="78.588" viewBox="0 0 78.588 78.588">
  <g id="Group_7" data-name="Group 7" transform="translate(0)">
    <g id="Group_6" data-name="Group 6">
      <path id="Path_65" data-name="Path 65" d="M155.052,0H98.229a1.218,1.218,0,1,0,0,2.435h56.823a2.032,2.032,0,0,1,2.029,2.029v39.37h-6.9a1.218,1.218,0,1,0,0,2.435h6.9V58.041a2.038,2.038,0,0,1-1.015,1.759,1.218,1.218,0,1,0,1.219,2.108,4.481,4.481,0,0,0,2.231-3.867V4.465A4.47,4.47,0,0,0,155.052,0Z" transform="translate(-80.929 0)" fill="#fff"/>
      <path id="Path_66" data-name="Path 66" d="M420.379,327.833a4.465,4.465,0,1,0,4.465-4.465A4.47,4.47,0,0,0,420.379,327.833Zm4.465-2.029a2.029,2.029,0,1,1-2.029,2.029A2.032,2.032,0,0,1,424.844,325.8Z" transform="translate(-355.591 -273.612)" fill="#fff"/>
      <path id="Path_67" data-name="Path 67" d="M26.788,61.288a1.218,1.218,0,0,0-1.218-1.218H4.465a2.032,2.032,0,0,1-2.029-2.029V46.271H32.065a1.218,1.218,0,1,0,0-2.435H2.435V4.465A2.032,2.032,0,0,1,4.465,2.435h6.494a1.218,1.218,0,0,0,0-2.435H4.465A4.47,4.47,0,0,0,0,4.465V58.041a4.47,4.47,0,0,0,4.465,4.465H25.57A1.218,1.218,0,0,0,26.788,61.288Z" transform="translate(0 0)" fill="#fff"/>
      <path id="Path_68" data-name="Path 68" d="M214.86,151.912l-10.74-3.222v-3.808a10.955,10.955,0,0,0,6.127-8.231l1.353-8.8a3.514,3.514,0,0,0,1.232-5.767h0l-2.371-2.371-1.676-5.028a7.7,7.7,0,0,0-6.545-5.235,2.845,2.845,0,0,0-2.585-1.662h-6.494a2.845,2.845,0,0,0-2.585,1.662,7.7,7.7,0,0,0-6.545,5.235l-1.676,5.028-2.371,2.371a3.514,3.514,0,0,0,1.231,5.768l1.353,8.8a10.955,10.955,0,0,0,6.127,8.231v3.808l-10.74,3.222a7.664,7.664,0,0,0-5.5,7.387v6.533a2.844,2.844,0,0,0,2.841,2.841h29.224a1.218,1.218,0,1,0,0-2.435H185.45v-3.653a1.218,1.218,0,1,0-2.435,0v3.653H175.3a.406.406,0,0,1-.406-.406V159.3a5.244,5.244,0,0,1,3.76-5.054l11.436-3.431h12.631l11.436,3.431a5.244,5.244,0,0,1,3.76,5.054v6.533a.406.406,0,0,1-.406.406H209.8v-3.653a1.218,1.218,0,0,0-2.435,0v4.871a1.218,1.218,0,0,0,1.218,1.218h8.929a2.844,2.844,0,0,0,2.841-2.841V159.3A7.664,7.664,0,0,0,214.86,151.912Zm-32.39-26.263a1.078,1.078,0,0,1-.763-1.841l2.575-2.574a1.218,1.218,0,0,0,.294-.476l1.767-5.3a5.269,5.269,0,0,1,3.978-3.507v5.176a1.218,1.218,0,1,0,2.435,0v-6.494a.406.406,0,0,1,.406-.406h6.494a.406.406,0,0,1,.406.406v6.494a1.218,1.218,0,0,0,2.435,0v-5.176a5.268,5.268,0,0,1,3.978,3.507l1.767,5.3a1.218,1.218,0,0,0,.294.476l2.574,2.574a1.078,1.078,0,0,1-.762,1.841H182.47Zm16.947,20.294a10.957,10.957,0,0,0,2.269-.238v2.673H191.133v-2.673a10.955,10.955,0,0,0,2.269.238h1.384a1.218,1.218,0,0,0,0-2.435H193.4a8.477,8.477,0,0,1-8.424-7.228l-1.261-8.2H209.1l-1.261,8.2a8.478,8.478,0,0,1-8.424,7.228,1.218,1.218,0,0,0,0,2.435Z" transform="translate(-145.015 -90.084)" fill="#fff"/>
      <path id="Path_69" data-name="Path 69" d="M36.8,323.368a4.465,4.465,0,1,0,0,8.929H48.166a4.465,4.465,0,1,0,0-8.929ZM50.2,327.833a2.032,2.032,0,0,1-2.029,2.029H36.8a2.029,2.029,0,0,1,0-4.059H48.166A2.032,2.032,0,0,1,50.2,327.833Z" transform="translate(-27.466 -273.612)" fill="#fff"/>
      <path id="Path_70" data-name="Path 70" d="M78.409,43.116H66.754a2.058,2.058,0,0,0-2.081,2.029v4.871a2.058,2.058,0,0,0,2.081,2.029h4.579v2.9l-5.509,2.686a2.013,2.013,0,0,0-1.151,1.815v.62a2.013,2.013,0,0,0,1.15,1.815l5.509,2.686v2.9H66.754A2.058,2.058,0,0,0,64.673,69.5v4.871A2.058,2.058,0,0,0,66.754,76.4H78.409a2.058,2.058,0,0,0,2.081-2.029V73.151h3.746a1.218,1.218,0,1,0,0-2.435H80.49V69.5a2.058,2.058,0,0,0-2.081-2.029H73.83v-2.9l5.509-2.686a2.013,2.013,0,0,0,1.151-1.815v-.62a2.013,2.013,0,0,0-1.15-1.815L73.83,54.946v-2.9h4.579a2.058,2.058,0,0,0,2.081-2.029V48.8h40.791V60.569a1.249,1.249,0,0,0,2.5,0V47.581a1.233,1.233,0,0,0-1.249-1.218H80.49V45.145A2.058,2.058,0,0,0,78.409,43.116ZM77.993,69.9v4.059H67.171V69.9Zm0-10.206v.118l-5.411,2.638L67.17,59.816V59.7l5.411-2.638Zm0-10.088H67.171V45.551H77.993Z" transform="translate(-54.932 -36.622)" fill="#fff"/>
      <path id="Path_71" data-name="Path 71" d="M183.242,327.833a4.465,4.465,0,1,0,4.465-4.465A4.47,4.47,0,0,0,183.242,327.833Zm6.494,0a2.029,2.029,0,1,1-2.029-2.029A2.032,2.032,0,0,1,189.736,327.833Z" transform="translate(-155.047 -273.612)" fill="#fff"/>
    </g>
  </g>
</svg>
